<?xml version="1.0" standalone="no"?>
<!DOCTYPE svg PUBLIC "-//W3C//DTD SVG 20010904//EN"
 "http://www.w3.org/TR/2001/REC-SVG-20010904/DTD/svg10.dtd">
<svg version="1.0" xmlns="http://www.w3.org/2000/svg"
 width="1042.000000pt" height="1042.000000pt" viewBox="0 0 1042.000000 1042.000000"
 preserveAspectRatio="xMidYMid meet">
<metadata>
Created by potrace 1.14, written by Peter Selinger 2001-2017
</metadata>
<g transform="translate(0.000000,1042.000000) scale(0.100000,-0.100000)"
fill="#000000" stroke="none">
<path d="M4900 7600 c0 -313 0 -320 20 -320 11 0 20 3 21 8 0 4 2 72 3 152 4
189 1 174 42 219 72 81 165 76 210 -11 10 -19 14 -74 15 -197 1 -168 2 -171
23 -171 21 0 21 3 20 178 -1 189 -6 213 -56 259 -60 55 -194 42 -229 -23 -7
-13 -16 -24 -20 -24 -4 0 -7 46 -7 103 -1 153 0 147 -22 147 -20 0 -20 -7 -20
-320z"/>
<path d="M4350 7848 c1 -13 2 -42 1 -65 -1 -41 -2 -43 -32 -43 -24 0 -30 -4
-27 -17 2 -13 12 -17 31 -16 31 2 28 24 29 -226 1 -113 4 -150 17 -172 16 -28
45 -47 69 -43 6 1 19 2 27 3 9 1 12 7 8 17 -3 8 -12 13 -19 10 -7 -3 -23 3
-35 13 -21 17 -22 25 -23 200 -1 112 3 185 9 189 6 4 19 7 30 7 11 0 21 8 23
18 3 13 -4 17 -30 17 l-34 0 2 65 c3 63 2 65 -22 65 -20 0 -25 -5 -24 -22z"/>
<path d="M6541 7818 c1 -78 1 -78 -30 -78 -16 0 -31 -6 -35 -15 -5 -15 3 -18
47 -18 9 0 17 -5 18 -11 0 -6 1 -92 2 -191 2 -163 4 -183 22 -207 21 -28 48
-38 80 -29 31 9 31 35 1 29 -51 -10 -57 11 -58 218 -2 188 -2 189 20 190 39 2
42 4 42 19 0 10 -10 15 -32 15 l-33 0 3 65 c2 63 1 65 -23 65 -23 0 -24 -3
-24 -52z"/>
<path d="M5830 7741 c-19 -4 -49 -15 -65 -25 -47 -28 -72 -97 -40 -110 11 -4
20 6 31 35 10 24 28 46 45 54 59 31 175 11 199 -35 6 -10 10 -35 10 -54 0 -31
-4 -38 -34 -50 -19 -8 -61 -18 -93 -21 -72 -9 -120 -28 -155 -62 -82 -78 -13
-201 115 -205 66 -2 121 16 147 49 15 19 20 21 20 9 0 -26 37 -56 62 -52 13 3
26 5 31 5 4 1 7 6 7 12 0 5 -4 8 -8 5 -5 -3 -19 4 -30 15 -21 19 -22 29 -22
187 -1 116 -4 172 -13 183 -15 20 -65 52 -86 56 -49 9 -90 10 -121 4z m178
-290 c-5 -65 -32 -112 -80 -137 -64 -33 -154 -11 -183 46 -19 36 -19 34 -1 69
19 36 57 61 104 67 64 8 145 24 151 30 10 10 13 -17 9 -75z"/>
<path d="M2155 6729 c-291 -38 -543 -126 -780 -272 -73 -45 -213 -158 -282
-228 -272 -277 -442 -603 -490 -944 -10 -66 -10 -336 -1 -400 17 -114 55 -278
77 -330 5 -11 23 -58 41 -105 189 -489 542 -817 1045 -970 70 -22 223 -58 268
-64 18 -3 64 -9 102 -15 39 -6 96 -13 128 -15 l57 -4 0 317 0 318 213 1 c116
0 221 1 232 1 20 1 20 8 20 886 0 612 -3 885 -10 885 -9 0 -264 -116 -430
-195 -16 -8 -33 -11 -37 -7 -3 4 -29 61 -56 127 -27 66 -73 175 -101 242 -28
68 -51 128 -50 135 0 7 58 41 128 76 142 70 284 159 390 246 89 73 244 237
234 247 -9 8 -196 55 -258 64 -65 10 -375 13 -440 4z"/>
<path d="M3940 6660 l-155 -5 0 -1322 0 -1323 217 0 c167 0 218 -3 219 -12 1
-7 2 -130 3 -272 1 -235 3 -260 18 -265 10 -3 129 -6 265 -5 l248 1 1 716 c0
395 3 720 6 722 10 11 118 -118 493 -586 209 -261 385 -481 392 -489 7 -8 71
-88 143 -177 72 -89 144 -169 160 -176 24 -12 109 -15 484 -16 l456 -1 1 28
c3 157 -1 3165 -5 3169 -3 4 -727 6 -1001 3 l-50 0 0 -684 0 -683 -21 13 c-11
8 -45 44 -75 81 -60 76 -89 110 -104 127 -101 109 -543 662 -661 826 -166 232
-245 296 -399 321 -76 13 -388 17 -635 9z"/>
<path d="M7215 6659 c-79 -13 -72 139 -72 -1623 0 -1439 1 -1576 16 -1577 83
-4 2570 -1 2577 4 6 3 11 147 13 356 l2 351 -770 0 -771 0 0 250 0 250 770 0
770 0 0 334 0 333 -752 1 c-414 0 -761 1 -770 1 -17 1 -18 20 -18 245 0 186 3
245 13 248 6 2 353 4 770 4 l757 -1 0 407 0 407 -32 6 c-46 7 -2457 11 -2503
4z"/>
<path d="M5950 2885 c0 -28 4 -35 20 -35 16 0 20 7 20 35 0 28 -4 35 -20 35
-16 0 -20 -7 -20 -35z"/>
<path d="M4364 2741 c-54 -22 -66 -31 -89 -66 -32 -48 -44 -103 -41 -179 6
-136 73 -221 179 -230 58 -4 115 20 151 65 l26 34 -1 -123 c-2 -122 4 -149 30
-133 11 7 13 64 13 292 0 156 -1 296 -1 312 -1 20 -6 27 -21 27 -17 0 -20 -7
-20 -41 l0 -41 -26 32 c-52 61 -128 80 -200 51z m149 -54 c122 -93 82 -356
-57 -383 -48 -8 -80 1 -116 34 -82 74 -86 266 -8 339 51 48 126 52 181 10z"/>
<path d="M5112 2563 c1 -183 6 -212 47 -253 38 -38 119 -52 178 -29 15 5 42
24 59 40 l31 30 -1 -33 c-1 -27 3 -34 22 -36 l22 -3 0 231 0 231 -22 -3 c-22
-3 -23 -5 -23 -159 -1 -154 -1 -158 -29 -199 -59 -90 -182 -99 -228 -18 -8 16
-13 78 -14 193 -2 204 0 185 -23 185 -18 0 -19 -9 -19 -177z"/>
<path d="M5950 2510 c0 -223 1 -230 20 -230 11 0 20 6 21 13 1 13 0 414 0 435
-1 6 -10 12 -21 12 -19 0 -20 -7 -20 -230z"/>
<path d="M6443 2720 c1 -11 6 -20 12 -21 5 0 67 -1 138 -1 70 -1 127 -3 127
-5 0 -5 -31 -44 -213 -276 -48 -62 -86 -116 -84 -122 2 -6 73 -11 180 -13 172
-2 177 -2 177 18 0 19 -6 20 -151 20 l-150 0 94 123 c166 215 197 259 197 278
0 18 -11 19 -164 19 -159 0 -165 -1 -163 -20z"/>
</g>
</svg>
