<svg width="57" height="57" viewBox="0 0 57 57" fill="none" xmlns="http://www.w3.org/2000/svg">
<path fill-rule="evenodd" clip-rule="evenodd" d="M28.5 57C44.2401 57 57 44.2401 57 28.5C57 12.7599 44.2401 0 28.5 0C12.7599 0 0 12.7599 0 28.5C0 44.2401 12.7599 57 28.5 57ZM30.5154 13.1195C28.872 13.1653 27.138 13.5609 25.9132 14.7247C24.9016 15.6604 24.392 17.0223 24.2774 18.3836C24.2426 19.3573 24.2475 20.3336 24.2525 21.3094C24.2562 22.0412 24.26 22.7729 24.2469 23.503C23.797 23.5063 23.3458 23.5054 22.8943 23.5045C22.2923 23.5032 21.6899 23.502 21.09 23.5107C21.09 24.0934 21.0909 24.6769 21.0917 25.2609C21.0934 26.4307 21.0951 27.6026 21.09 28.7747C21.6899 28.7835 22.2923 28.7822 22.8943 28.781C23.3458 28.78 23.797 28.7791 24.2469 28.7824C24.2571 31.1052 24.2552 33.4279 24.2533 35.7506C24.2509 38.6539 24.2486 41.5572 24.2698 44.4605C25.5043 44.4517 26.7362 44.453 27.9685 44.4542C28.8928 44.4552 29.8174 44.4561 30.7435 44.4528C30.7511 41.8397 30.7492 39.2287 30.7473 36.6176C30.7453 34.0065 30.7435 31.3954 30.7511 28.7824C31.3738 28.7791 31.9965 28.78 32.6192 28.781C33.4494 28.7822 34.2797 28.7835 35.1099 28.7747C35.3686 27.025 35.589 25.2599 35.7107 23.4878C34.8893 23.484 34.0677 23.484 33.2462 23.484C32.4246 23.484 31.6031 23.484 30.7817 23.4802C30.7817 23.1739 30.7811 22.8677 30.7807 22.5615C30.7793 21.643 30.7778 20.7246 30.7893 19.806C30.9186 19.0984 31.6486 18.5582 32.3563 18.6041H35.7184C35.726 16.7708 35.726 14.9452 35.7184 13.1119C35.2848 13.1119 34.8513 13.1114 34.4178 13.111C33.1171 13.1095 31.8163 13.1081 30.5154 13.1195Z" fill="#1E5D86"/>
</svg>
