<svg width="57" height="57" viewBox="0 0 57 57" fill="none" xmlns="http://www.w3.org/2000/svg">
<g clip-path="url(#clip0_84_55)">
<path fill-rule="evenodd" clip-rule="evenodd" d="M28.5 57C44.2401 57 57 44.2401 57 28.5C57 12.7599 44.2401 0 28.5 0C12.7599 0 0 12.7599 0 28.5C0 44.2401 12.7599 57 28.5 57ZM41.027 18.2083C41.2467 15.7117 38.6103 16.7396 38.6103 16.7396C36.6636 17.5455 34.6559 18.3644 32.6267 19.1922C26.3345 21.7588 19.8338 24.4104 14.2962 27.0201C11.2936 28.1216 13.0512 29.223 13.0512 29.223L17.8115 30.6917C20.0085 31.3525 21.1803 30.6182 21.1803 30.6182L31.4332 23.6422C35.095 21.1456 34.2162 23.2017 33.3374 24.0828L25.6476 31.4259C24.4759 32.454 25.0618 33.3352 25.5744 33.7757C27.0273 35.0577 30.6014 37.4031 32.1617 38.4271C32.5677 38.6935 32.8374 38.8705 32.8979 38.916C33.2641 39.2097 35.2414 40.5314 36.5597 40.2377C37.8779 39.944 38.0244 38.2551 38.0244 38.2551L39.782 26.7263C40.0456 24.7249 40.348 22.8011 40.5895 21.2646C40.8176 19.8134 40.9914 18.7077 41.027 18.2083Z" fill="#1E5D86"/>
</g>
<defs>
<clipPath id="clip0_84_55">
<rect width="57" height="57" fill="white"/>
</clipPath>
</defs>
</svg>
