<svg width="55" height="54" viewBox="0 0 55 54" fill="none" xmlns="http://www.w3.org/2000/svg">
<g clip-path="url(#clip0_71_22)">
<path fill-rule="evenodd" clip-rule="evenodd" d="M27.3223 53.4375C42.0786 53.4375 54.041 41.4751 54.041 26.7188C54.041 11.9624 42.0786 0 27.3223 0C12.5659 0 0.603516 11.9624 0.603516 26.7188C0.603516 41.4751 12.5659 53.4375 27.3223 53.4375ZM39.0663 17.0703C39.2723 14.7297 36.8006 15.6934 36.8006 15.6934C34.9756 16.4489 33.0935 17.2167 31.191 17.9927C25.2921 20.3989 19.1977 22.8848 14.0062 25.3313C11.1912 26.364 12.839 27.3966 12.839 27.3966L17.3018 28.7734C19.3615 29.393 20.4601 28.7046 20.4601 28.7046L30.0722 22.1646C33.505 19.824 32.6812 21.7516 31.8573 22.5777L24.6481 29.4618C23.5496 30.4256 24.0989 31.2517 24.5795 31.6648C25.9416 32.8666 29.2923 35.0654 30.7551 36.0254C31.1358 36.2751 31.3886 36.4411 31.4453 36.4837C31.7886 36.7591 33.6423 37.9982 34.8782 37.7229C36.1141 37.4475 36.2514 35.8642 36.2514 35.8642L37.8992 25.0559C38.1463 23.1796 38.4298 21.3761 38.6562 19.9356C38.8701 18.575 39.033 17.5385 39.0663 17.0703Z" fill="black"/>
</g>
<defs>
<clipPath id="clip0_71_22">
<rect width="53.4375" height="53.4375" fill="white" transform="translate(0.603516)"/>
</clipPath>
</defs>
</svg>
