<svg width="390" height="240" viewBox="0 0 390 240" fill="none" xmlns="http://www.w3.org/2000/svg">
<rect y="87" width="390" height="130" fill="#761F28"/>
<rect x="18.5" y="2.5" width="352" height="193" fill="white" stroke="#761F28" stroke-width="5"/>
<path d="M77.4531 43.8672L73.0938 61H68.957L66.6367 52C66.5898 51.8281 66.5273 51.5664 66.4492 51.2148C66.3711 50.8633 66.2891 50.4805 66.2031 50.0664C66.1172 49.6445 66.0391 49.25 65.9688 48.8828C65.9062 48.5078 65.8633 48.2109 65.8398 47.9922C65.8164 48.2109 65.7695 48.5039 65.6992 48.8711C65.6367 49.2383 65.5625 49.6289 65.4766 50.043C65.3984 50.457 65.3203 50.8438 65.2422 51.2031C65.1641 51.5625 65.1016 51.8359 65.0547 52.0234L62.7461 61H58.6211L54.25 43.8672H57.8242L60.0156 53.2188C60.0781 53.5 60.1484 53.8359 60.2266 54.2266C60.3125 54.6172 60.3945 55.0273 60.4727 55.457C60.5586 55.8789 60.6328 56.2891 60.6953 56.6875C60.7656 57.0781 60.8164 57.418 60.8477 57.707C60.8867 57.4102 60.9375 57.0664 61 56.6758C61.0625 56.2773 61.1289 55.875 61.1992 55.4688C61.2773 55.0547 61.3555 54.6719 61.4336 54.3203C61.5117 53.9688 61.582 53.6836 61.6445 53.4648L64.1406 43.8672H67.5742L70.0703 53.4648C70.125 53.6758 70.1875 53.9609 70.2578 54.3203C70.3359 54.6719 70.4141 55.0547 70.4922 55.4688C70.5703 55.8828 70.6406 56.2891 70.7031 56.6875C70.7734 57.0781 70.8242 57.418 70.8555 57.707C70.9102 57.3164 70.9844 56.8438 71.0781 56.2891C71.1797 55.7266 71.2852 55.168 71.3945 54.6133C71.5117 54.0586 71.6133 53.5938 71.6992 53.2188L73.8789 43.8672H77.4531ZM84.7305 47.6523C85.9414 47.6523 86.9844 47.8867 87.8594 48.3555C88.7344 48.8164 89.4102 49.4883 89.8867 50.3711C90.3633 51.2539 90.6016 52.332 90.6016 53.6055V55.3398H82.1523C82.1914 56.3477 82.4922 57.1406 83.0547 57.7188C83.625 58.2891 84.4141 58.5742 85.4219 58.5742C86.2578 58.5742 87.0234 58.4883 87.7188 58.3164C88.4141 58.1445 89.1289 57.8867 89.8633 57.543V60.3086C89.2148 60.6289 88.5352 60.8633 87.8242 61.0117C87.1211 61.1602 86.2656 61.2344 85.2578 61.2344C83.9453 61.2344 82.7812 60.9922 81.7656 60.5078C80.7578 60.0234 79.9648 59.2852 79.3867 58.293C78.8164 57.3008 78.5312 56.0508 78.5312 54.543C78.5312 53.0117 78.7891 51.7383 79.3047 50.7227C79.8281 49.6992 80.5547 48.9336 81.4844 48.4258C82.4141 47.9102 83.4961 47.6523 84.7305 47.6523ZM84.7539 50.1953C84.0586 50.1953 83.4805 50.418 83.0195 50.8633C82.5664 51.3086 82.3047 52.0078 82.2344 52.9609H87.25C87.2422 52.4297 87.1445 51.957 86.957 51.543C86.7773 51.1289 86.5039 50.8008 86.1367 50.5586C85.7773 50.3164 85.3164 50.1953 84.7539 50.1953ZM105.109 47.6289C106.867 47.6289 108.215 48.0117 109.152 48.7773C110.09 49.543 110.559 50.707 110.559 52.2695V61H108.062L107.371 59.2188H107.277C106.902 59.6875 106.52 60.0703 106.129 60.3672C105.738 60.6641 105.289 60.8828 104.781 61.0234C104.273 61.1641 103.656 61.2344 102.93 61.2344C102.156 61.2344 101.461 61.0859 100.844 60.7891C100.234 60.4922 99.7539 60.0391 99.4023 59.4297C99.0508 58.8125 98.875 58.0312 98.875 57.0859C98.875 55.6953 99.3633 54.6719 100.34 54.0156C101.316 53.3516 102.781 52.9844 104.734 52.9141L107.008 52.8438V52.2695C107.008 51.582 106.828 51.0781 106.469 50.7578C106.109 50.4375 105.609 50.2773 104.969 50.2773C104.336 50.2773 103.715 50.3672 103.105 50.5469C102.496 50.7266 101.887 50.9531 101.277 51.2266L100.094 48.8125C100.789 48.4453 101.566 48.1562 102.426 47.9453C103.293 47.7344 104.188 47.6289 105.109 47.6289ZM107.008 54.9297L105.625 54.9766C104.469 55.0078 103.664 55.2148 103.211 55.5977C102.766 55.9805 102.543 56.4844 102.543 57.1094C102.543 57.6562 102.703 58.0469 103.023 58.2812C103.344 58.5078 103.762 58.6211 104.277 58.6211C105.043 58.6211 105.688 58.3945 106.211 57.9414C106.742 57.4883 107.008 56.8438 107.008 56.0078V54.9297ZM121.562 47.6523C121.742 47.6523 121.949 47.6641 122.184 47.6875C122.426 47.7031 122.621 47.7266 122.77 47.7578L122.5 51.1094C122.383 51.0703 122.215 51.043 121.996 51.0273C121.785 51.0039 121.602 50.9922 121.445 50.9922C120.984 50.9922 120.535 51.0508 120.098 51.168C119.668 51.2852 119.281 51.4766 118.938 51.7422C118.594 52 118.32 52.3438 118.117 52.7734C117.922 53.1953 117.824 53.7148 117.824 54.332V61H114.25V47.8984H116.957L117.484 50.1016H117.66C117.918 49.6562 118.238 49.25 118.621 48.8828C119.012 48.5078 119.453 48.2109 119.945 47.9922C120.445 47.7656 120.984 47.6523 121.562 47.6523ZM130.551 47.6523C131.762 47.6523 132.805 47.8867 133.68 48.3555C134.555 48.8164 135.23 49.4883 135.707 50.3711C136.184 51.2539 136.422 52.332 136.422 53.6055V55.3398H127.973C128.012 56.3477 128.312 57.1406 128.875 57.7188C129.445 58.2891 130.234 58.5742 131.242 58.5742C132.078 58.5742 132.844 58.4883 133.539 58.3164C134.234 58.1445 134.949 57.8867 135.684 57.543V60.3086C135.035 60.6289 134.355 60.8633 133.645 61.0117C132.941 61.1602 132.086 61.2344 131.078 61.2344C129.766 61.2344 128.602 60.9922 127.586 60.5078C126.578 60.0234 125.785 59.2852 125.207 58.293C124.637 57.3008 124.352 56.0508 124.352 54.543C124.352 53.0117 124.609 51.7383 125.125 50.7227C125.648 49.6992 126.375 48.9336 127.305 48.4258C128.234 47.9102 129.316 47.6523 130.551 47.6523ZM130.574 50.1953C129.879 50.1953 129.301 50.418 128.84 50.8633C128.387 51.3086 128.125 52.0078 128.055 52.9609H133.07C133.062 52.4297 132.965 51.957 132.777 51.543C132.598 51.1289 132.324 50.8008 131.957 50.5586C131.598 50.3164 131.137 50.1953 130.574 50.1953ZM149.137 61H145.562V42.7656H149.137V61ZM164.805 54.4258C164.805 55.5195 164.656 56.4883 164.359 57.332C164.07 58.1758 163.645 58.8906 163.082 59.4766C162.527 60.0547 161.855 60.4922 161.066 60.7891C160.285 61.0859 159.402 61.2344 158.418 61.2344C157.496 61.2344 156.648 61.0859 155.875 60.7891C155.109 60.4922 154.441 60.0547 153.871 59.4766C153.309 58.8906 152.871 58.1758 152.559 57.332C152.254 56.4883 152.102 55.5195 152.102 54.4258C152.102 52.9727 152.359 51.7422 152.875 50.7344C153.391 49.7266 154.125 48.9609 155.078 48.4375C156.031 47.9141 157.168 47.6523 158.488 47.6523C159.715 47.6523 160.801 47.9141 161.746 48.4375C162.699 48.9609 163.445 49.7266 163.984 50.7344C164.531 51.7422 164.805 52.9727 164.805 54.4258ZM155.746 54.4258C155.746 55.2852 155.84 56.0078 156.027 56.5938C156.215 57.1797 156.508 57.6211 156.906 57.918C157.305 58.2148 157.824 58.3633 158.465 58.3633C159.098 58.3633 159.609 58.2148 160 57.918C160.398 57.6211 160.688 57.1797 160.867 56.5938C161.055 56.0078 161.148 55.2852 161.148 54.4258C161.148 53.5586 161.055 52.8398 160.867 52.2695C160.688 51.6914 160.398 51.2578 160 50.9688C159.602 50.6797 159.082 50.5352 158.441 50.5352C157.496 50.5352 156.809 50.8594 156.379 51.5078C155.957 52.1562 155.746 53.1289 155.746 54.4258ZM179.664 54.4258C179.664 55.5195 179.516 56.4883 179.219 57.332C178.93 58.1758 178.504 58.8906 177.941 59.4766C177.387 60.0547 176.715 60.4922 175.926 60.7891C175.145 61.0859 174.262 61.2344 173.277 61.2344C172.355 61.2344 171.508 61.0859 170.734 60.7891C169.969 60.4922 169.301 60.0547 168.73 59.4766C168.168 58.8906 167.73 58.1758 167.418 57.332C167.113 56.4883 166.961 55.5195 166.961 54.4258C166.961 52.9727 167.219 51.7422 167.734 50.7344C168.25 49.7266 168.984 48.9609 169.938 48.4375C170.891 47.9141 172.027 47.6523 173.348 47.6523C174.574 47.6523 175.66 47.9141 176.605 48.4375C177.559 48.9609 178.305 49.7266 178.844 50.7344C179.391 51.7422 179.664 52.9727 179.664 54.4258ZM170.605 54.4258C170.605 55.2852 170.699 56.0078 170.887 56.5938C171.074 57.1797 171.367 57.6211 171.766 57.918C172.164 58.2148 172.684 58.3633 173.324 58.3633C173.957 58.3633 174.469 58.2148 174.859 57.918C175.258 57.6211 175.547 57.1797 175.727 56.5938C175.914 56.0078 176.008 55.2852 176.008 54.4258C176.008 53.5586 175.914 52.8398 175.727 52.2695C175.547 51.6914 175.258 51.2578 174.859 50.9688C174.461 50.6797 173.941 50.5352 173.301 50.5352C172.355 50.5352 171.668 50.8594 171.238 51.5078C170.816 52.1562 170.605 53.1289 170.605 54.4258ZM186.191 42.7656V50.9219C186.191 51.4141 186.172 51.9062 186.133 52.3984C186.094 52.8906 186.051 53.3828 186.004 53.875H186.051C186.293 53.5312 186.539 53.1914 186.789 52.8555C187.047 52.5195 187.32 52.1953 187.609 51.8828L191.277 47.8984H195.309L190.105 53.582L195.625 61H191.5L187.727 55.6914L186.191 56.9219V61H182.617V42.7656H186.191ZM201.074 47.8984V61H197.5V47.8984H201.074ZM199.293 42.7656C199.824 42.7656 200.281 42.8906 200.664 43.1406C201.047 43.3828 201.238 43.8398 201.238 44.5117C201.238 45.1758 201.047 45.6367 200.664 45.8945C200.281 46.1445 199.824 46.2695 199.293 46.2695C198.754 46.2695 198.293 46.1445 197.91 45.8945C197.535 45.6367 197.348 45.1758 197.348 44.5117C197.348 43.8398 197.535 43.3828 197.91 43.1406C198.293 42.8906 198.754 42.7656 199.293 42.7656ZM212.277 47.6523C213.676 47.6523 214.801 48.0352 215.652 48.8008C216.504 49.5586 216.93 50.7773 216.93 52.457V61H213.355V53.3477C213.355 52.4102 213.184 51.7031 212.84 51.2266C212.504 50.75 211.973 50.5117 211.246 50.5117C210.152 50.5117 209.406 50.8828 209.008 51.625C208.609 52.3672 208.41 53.4375 208.41 54.8359V61H204.836V47.8984H207.566L208.047 49.5742H208.246C208.527 49.1211 208.875 48.7539 209.289 48.4727C209.711 48.1914 210.176 47.9844 210.684 47.8516C211.199 47.7188 211.73 47.6523 212.277 47.6523ZM224.441 66.7656C222.613 66.7656 221.215 66.4453 220.246 65.8047C219.285 65.1719 218.805 64.2812 218.805 63.1328C218.805 62.3438 219.051 61.6836 219.543 61.1523C220.035 60.6211 220.758 60.2422 221.711 60.0156C221.344 59.8594 221.023 59.6055 220.75 59.2539C220.477 58.8945 220.34 58.5156 220.34 58.1172C220.34 57.6172 220.484 57.2031 220.773 56.875C221.062 56.5391 221.48 56.2109 222.027 55.8906C221.34 55.5938 220.793 55.1172 220.387 54.4609C219.988 53.8047 219.789 53.0312 219.789 52.1406C219.789 51.1875 219.996 50.3789 220.41 49.7148C220.832 49.043 221.441 48.5312 222.238 48.1797C223.043 47.8281 224.02 47.6523 225.168 47.6523C225.41 47.6523 225.691 47.668 226.012 47.6992C226.332 47.7305 226.625 47.7656 226.891 47.8047C227.164 47.8438 227.348 47.875 227.441 47.8984H232.012V49.7148L229.961 50.2422C230.148 50.5312 230.289 50.8398 230.383 51.168C230.477 51.4961 230.523 51.8438 230.523 52.2109C230.523 53.6172 230.031 54.7148 229.047 55.5039C228.07 56.2852 226.711 56.6758 224.969 56.6758C224.555 56.6523 224.164 56.6211 223.797 56.582C223.617 56.7227 223.48 56.8711 223.387 57.0273C223.293 57.1836 223.246 57.3477 223.246 57.5195C223.246 57.6914 223.316 57.8359 223.457 57.9531C223.605 58.0625 223.824 58.1484 224.113 58.2109C224.41 58.2656 224.777 58.293 225.215 58.293H227.441C228.879 58.293 229.973 58.6016 230.723 59.2188C231.48 59.8359 231.859 60.7422 231.859 61.9375C231.859 63.4688 231.219 64.6562 229.938 65.5C228.664 66.3438 226.832 66.7656 224.441 66.7656ZM224.594 64.4336C225.445 64.4336 226.176 64.3516 226.785 64.1875C227.402 64.0312 227.875 63.8047 228.203 63.5078C228.531 63.2188 228.695 62.8711 228.695 62.4648C228.695 62.1367 228.598 61.875 228.402 61.6797C228.215 61.4922 227.926 61.3594 227.535 61.2812C227.152 61.2031 226.66 61.1641 226.059 61.1641H224.207C223.77 61.1641 223.375 61.2344 223.023 61.375C222.68 61.5156 222.406 61.7109 222.203 61.9609C222 62.2188 221.898 62.5156 221.898 62.8516C221.898 63.3438 222.133 63.7305 222.602 64.0117C223.078 64.293 223.742 64.4336 224.594 64.4336ZM225.168 54.4961C225.84 54.4961 226.332 54.2891 226.645 53.875C226.957 53.4609 227.113 52.8984 227.113 52.1875C227.113 51.3984 226.949 50.8086 226.621 50.418C226.301 50.0195 225.816 49.8203 225.168 49.8203C224.512 49.8203 224.02 50.0195 223.691 50.418C223.363 50.8086 223.199 51.3984 223.199 52.1875C223.199 52.8984 223.359 53.4609 223.68 53.875C224.008 54.2891 224.504 54.4961 225.168 54.4961ZM247.656 50.582H244.562V61H240.988V50.582H239.02V48.8594L240.988 47.8984V46.9375C240.988 45.8203 241.176 44.9531 241.551 44.3359C241.934 43.7109 242.469 43.2734 243.156 43.0234C243.852 42.7656 244.672 42.6367 245.617 42.6367C246.312 42.6367 246.945 42.6953 247.516 42.8125C248.086 42.9219 248.551 43.0469 248.91 43.1875L247.996 45.8125C247.723 45.7266 247.426 45.6484 247.105 45.5781C246.785 45.5078 246.418 45.4727 246.004 45.4727C245.504 45.4727 245.137 45.625 244.902 45.9297C244.676 46.2266 244.562 46.6094 244.562 47.0781V47.8984H247.656V50.582ZM261.625 54.4258C261.625 55.5195 261.477 56.4883 261.18 57.332C260.891 58.1758 260.465 58.8906 259.902 59.4766C259.348 60.0547 258.676 60.4922 257.887 60.7891C257.105 61.0859 256.223 61.2344 255.238 61.2344C254.316 61.2344 253.469 61.0859 252.695 60.7891C251.93 60.4922 251.262 60.0547 250.691 59.4766C250.129 58.8906 249.691 58.1758 249.379 57.332C249.074 56.4883 248.922 55.5195 248.922 54.4258C248.922 52.9727 249.18 51.7422 249.695 50.7344C250.211 49.7266 250.945 48.9609 251.898 48.4375C252.852 47.9141 253.988 47.6523 255.309 47.6523C256.535 47.6523 257.621 47.9141 258.566 48.4375C259.52 48.9609 260.266 49.7266 260.805 50.7344C261.352 51.7422 261.625 52.9727 261.625 54.4258ZM252.566 54.4258C252.566 55.2852 252.66 56.0078 252.848 56.5938C253.035 57.1797 253.328 57.6211 253.727 57.918C254.125 58.2148 254.645 58.3633 255.285 58.3633C255.918 58.3633 256.43 58.2148 256.82 57.918C257.219 57.6211 257.508 57.1797 257.688 56.5938C257.875 56.0078 257.969 55.2852 257.969 54.4258C257.969 53.5586 257.875 52.8398 257.688 52.2695C257.508 51.6914 257.219 51.2578 256.82 50.9688C256.422 50.6797 255.902 50.5352 255.262 50.5352C254.316 50.5352 253.629 50.8594 253.199 51.5078C252.777 52.1562 252.566 53.1289 252.566 54.4258ZM271.891 47.6523C272.07 47.6523 272.277 47.6641 272.512 47.6875C272.754 47.7031 272.949 47.7266 273.098 47.7578L272.828 51.1094C272.711 51.0703 272.543 51.043 272.324 51.0273C272.113 51.0039 271.93 50.9922 271.773 50.9922C271.312 50.9922 270.863 51.0508 270.426 51.168C269.996 51.2852 269.609 51.4766 269.266 51.7422C268.922 52 268.648 52.3438 268.445 52.7734C268.25 53.1953 268.152 53.7148 268.152 54.332V61H264.578V47.8984H267.285L267.812 50.1016H267.988C268.246 49.6562 268.566 49.25 268.949 48.8828C269.34 48.5078 269.781 48.2109 270.273 47.9922C270.773 47.7656 271.312 47.6523 271.891 47.6523ZM286.246 61L285.238 56.418C285.184 56.1445 285.094 55.7422 284.969 55.2109C284.844 54.6719 284.707 54.0977 284.559 53.4883C284.418 52.8711 284.285 52.3008 284.16 51.7773C284.043 51.2539 283.957 50.8711 283.902 50.6289H283.797C283.742 50.8711 283.656 51.2539 283.539 51.7773C283.422 52.3008 283.289 52.8711 283.141 53.4883C283 54.1055 282.867 54.6875 282.742 55.2344C282.617 55.7734 282.523 56.1836 282.461 56.4648L281.406 61H277.562L273.836 47.8984H277.398L278.91 53.6992C279.012 54.1055 279.109 54.5898 279.203 55.1523C279.297 55.707 279.379 56.2461 279.449 56.7695C279.527 57.2852 279.586 57.6953 279.625 58H279.719C279.734 57.7734 279.766 57.4727 279.812 57.0977C279.867 56.7227 279.926 56.3359 279.988 55.9375C280.059 55.5312 280.121 55.168 280.176 54.8477C280.238 54.5195 280.285 54.2969 280.316 54.1797L281.934 47.8984H285.871L287.406 54.1797C287.461 54.4062 287.531 54.7656 287.617 55.2578C287.711 55.75 287.793 56.2578 287.863 56.7812C287.934 57.2969 287.973 57.7031 287.98 58H288.074C288.105 57.7344 288.16 57.3398 288.238 56.8164C288.316 56.293 288.406 55.7461 288.508 55.1758C288.617 54.5977 288.727 54.1055 288.836 53.6992L290.406 47.8984H293.91L290.137 61H286.246ZM301.398 47.6289C303.156 47.6289 304.504 48.0117 305.441 48.7773C306.379 49.543 306.848 50.707 306.848 52.2695V61H304.352L303.66 59.2188H303.566C303.191 59.6875 302.809 60.0703 302.418 60.3672C302.027 60.6641 301.578 60.8828 301.07 61.0234C300.562 61.1641 299.945 61.2344 299.219 61.2344C298.445 61.2344 297.75 61.0859 297.133 60.7891C296.523 60.4922 296.043 60.0391 295.691 59.4297C295.34 58.8125 295.164 58.0312 295.164 57.0859C295.164 55.6953 295.652 54.6719 296.629 54.0156C297.605 53.3516 299.07 52.9844 301.023 52.9141L303.297 52.8438V52.2695C303.297 51.582 303.117 51.0781 302.758 50.7578C302.398 50.4375 301.898 50.2773 301.258 50.2773C300.625 50.2773 300.004 50.3672 299.395 50.5469C298.785 50.7266 298.176 50.9531 297.566 51.2266L296.383 48.8125C297.078 48.4453 297.855 48.1562 298.715 47.9453C299.582 47.7344 300.477 47.6289 301.398 47.6289ZM303.297 54.9297L301.914 54.9766C300.758 55.0078 299.953 55.2148 299.5 55.5977C299.055 55.9805 298.832 56.4844 298.832 57.1094C298.832 57.6562 298.992 58.0469 299.312 58.2812C299.633 58.5078 300.051 58.6211 300.566 58.6211C301.332 58.6211 301.977 58.3945 302.5 57.9414C303.031 57.4883 303.297 56.8438 303.297 56.0078V54.9297ZM317.852 47.6523C318.031 47.6523 318.238 47.6641 318.473 47.6875C318.715 47.7031 318.91 47.7266 319.059 47.7578L318.789 51.1094C318.672 51.0703 318.504 51.043 318.285 51.0273C318.074 51.0039 317.891 50.9922 317.734 50.9922C317.273 50.9922 316.824 51.0508 316.387 51.168C315.957 51.2852 315.57 51.4766 315.227 51.7422C314.883 52 314.609 52.3438 314.406 52.7734C314.211 53.1953 314.113 53.7148 314.113 54.332V61H310.539V47.8984H313.246L313.773 50.1016H313.949C314.207 49.6562 314.527 49.25 314.91 48.8828C315.301 48.5078 315.742 48.2109 316.234 47.9922C316.734 47.7656 317.273 47.6523 317.852 47.6523ZM325.586 61.2344C324.125 61.2344 322.934 60.6641 322.012 59.5234C321.098 58.375 320.641 56.6914 320.641 54.4727C320.641 52.2305 321.105 50.5352 322.035 49.3867C322.965 48.2305 324.18 47.6523 325.68 47.6523C326.305 47.6523 326.855 47.7383 327.332 47.9102C327.809 48.082 328.219 48.3125 328.562 48.6016C328.914 48.8906 329.211 49.2148 329.453 49.5742H329.57C329.523 49.3242 329.465 48.957 329.395 48.4727C329.332 47.9805 329.301 47.4766 329.301 46.9609V42.7656H332.887V61H330.145L329.453 59.3008H329.301C329.074 59.6602 328.789 59.9883 328.445 60.2852C328.109 60.5742 327.707 60.8047 327.238 60.9766C326.77 61.1484 326.219 61.2344 325.586 61.2344ZM326.84 58.3867C327.816 58.3867 328.504 58.0977 328.902 57.5195C329.309 56.9336 329.523 56.0547 329.547 54.8828V54.4961C329.547 53.2227 329.352 52.25 328.961 51.5781C328.57 50.8984 327.844 50.5586 326.781 50.5586C325.992 50.5586 325.375 50.8984 324.93 51.5781C324.484 52.2578 324.262 53.2383 324.262 54.5195C324.262 55.8008 324.484 56.7656 324.93 57.4141C325.383 58.0625 326.02 58.3867 326.84 58.3867ZM51.9414 91.3867C52.332 91.3867 52.7109 91.3477 53.0781 91.2695C53.4531 91.1914 53.8242 91.0938 54.1914 90.9766V93.6367C53.8086 93.8086 53.332 93.9492 52.7617 94.0586C52.1992 94.1758 51.582 94.2344 50.9102 94.2344C50.1289 94.2344 49.4258 94.1094 48.8008 93.8594C48.1836 93.6016 47.6953 93.1602 47.3359 92.5352C46.9844 91.9023 46.8086 91.0234 46.8086 89.8984V83.582H45.0977V82.0703L47.0664 80.875L48.0977 78.1094H50.3828V80.8984H54.0508V83.582H50.3828V89.8984C50.3828 90.3984 50.5234 90.7734 50.8047 91.0234C51.0938 91.2656 51.4727 91.3867 51.9414 91.3867ZM68.7578 87.4258C68.7578 88.5195 68.6094 89.4883 68.3125 90.332C68.0234 91.1758 67.5977 91.8906 67.0352 92.4766C66.4805 93.0547 65.8086 93.4922 65.0195 93.7891C64.2383 94.0859 63.3555 94.2344 62.3711 94.2344C61.4492 94.2344 60.6016 94.0859 59.8281 93.7891C59.0625 93.4922 58.3945 93.0547 57.8242 92.4766C57.2617 91.8906 56.8242 91.1758 56.5117 90.332C56.207 89.4883 56.0547 88.5195 56.0547 87.4258C56.0547 85.9727 56.3125 84.7422 56.8281 83.7344C57.3438 82.7266 58.0781 81.9609 59.0312 81.4375C59.9844 80.9141 61.1211 80.6523 62.4414 80.6523C63.668 80.6523 64.7539 80.9141 65.6992 81.4375C66.6523 81.9609 67.3984 82.7266 67.9375 83.7344C68.4844 84.7422 68.7578 85.9727 68.7578 87.4258ZM59.6992 87.4258C59.6992 88.2852 59.793 89.0078 59.9805 89.5938C60.168 90.1797 60.4609 90.6211 60.8594 90.918C61.2578 91.2148 61.7773 91.3633 62.418 91.3633C63.0508 91.3633 63.5625 91.2148 63.9531 90.918C64.3516 90.6211 64.6406 90.1797 64.8203 89.5938C65.0078 89.0078 65.1016 88.2852 65.1016 87.4258C65.1016 86.5586 65.0078 85.8398 64.8203 85.2695C64.6406 84.6914 64.3516 84.2578 63.9531 83.9688C63.5547 83.6797 63.0352 83.5352 62.3945 83.5352C61.4492 83.5352 60.7617 83.8594 60.332 84.5078C59.9102 85.1562 59.6992 86.1289 59.6992 87.4258ZM87.0859 90.1094C87.0859 91 86.875 91.7539 86.4531 92.3711C86.0391 92.9805 85.418 93.4453 84.5898 93.7656C83.7617 94.0781 82.7305 94.2344 81.4961 94.2344C80.582 94.2344 79.7969 94.1758 79.1406 94.0586C78.4922 93.9414 77.8359 93.7461 77.1719 93.4727V90.5195C77.8828 90.8398 78.6445 91.1055 79.457 91.3164C80.2773 91.5195 80.9961 91.6211 81.6133 91.6211C82.3086 91.6211 82.8047 91.5195 83.1016 91.3164C83.4062 91.1055 83.5586 90.832 83.5586 90.4961C83.5586 90.2773 83.4961 90.082 83.3711 89.9102C83.2539 89.7305 82.9961 89.5312 82.5977 89.3125C82.1992 89.0859 81.5742 88.793 80.7227 88.4336C79.9023 88.0898 79.2266 87.7422 78.6953 87.3906C78.1719 87.0391 77.7812 86.625 77.5234 86.1484C77.2734 85.6641 77.1484 85.0508 77.1484 84.3086C77.1484 83.0977 77.6172 82.1875 78.5547 81.5781C79.5 80.9609 80.7617 80.6523 82.3398 80.6523C83.1523 80.6523 83.9258 80.7344 84.6602 80.8984C85.4023 81.0625 86.1641 81.3242 86.9453 81.6836L85.8672 84.2617C85.2188 83.9805 84.6055 83.75 84.0273 83.5703C83.457 83.3906 82.875 83.3008 82.2812 83.3008C81.7578 83.3008 81.3633 83.3711 81.0977 83.5117C80.832 83.6523 80.6992 83.8672 80.6992 84.1562C80.6992 84.3672 80.7656 84.5547 80.8984 84.7188C81.0391 84.8828 81.3047 85.0664 81.6953 85.2695C82.0938 85.4648 82.6758 85.7188 83.4414 86.0312C84.1836 86.3359 84.8281 86.6562 85.375 86.9922C85.9219 87.3203 86.3438 87.7305 86.6406 88.2227C86.9375 88.707 87.0859 89.3359 87.0859 90.1094ZM95.2773 80.6523C96.4883 80.6523 97.5312 80.8867 98.4062 81.3555C99.2812 81.8164 99.957 82.4883 100.434 83.3711C100.91 84.2539 101.148 85.332 101.148 86.6055V88.3398H92.6992C92.7383 89.3477 93.0391 90.1406 93.6016 90.7188C94.1719 91.2891 94.9609 91.5742 95.9688 91.5742C96.8047 91.5742 97.5703 91.4883 98.2656 91.3164C98.9609 91.1445 99.6758 90.8867 100.41 90.543V93.3086C99.7617 93.6289 99.082 93.8633 98.3711 94.0117C97.668 94.1602 96.8125 94.2344 95.8047 94.2344C94.4922 94.2344 93.3281 93.9922 92.3125 93.5078C91.3047 93.0234 90.5117 92.2852 89.9336 91.293C89.3633 90.3008 89.0781 89.0508 89.0781 87.543C89.0781 86.0117 89.3359 84.7383 89.8516 83.7227C90.375 82.6992 91.1016 81.9336 92.0312 81.4258C92.9609 80.9102 94.043 80.6523 95.2773 80.6523ZM95.3008 83.1953C94.6055 83.1953 94.0273 83.418 93.5664 83.8633C93.1133 84.3086 92.8516 85.0078 92.7812 85.9609H97.7969C97.7891 85.4297 97.6914 84.957 97.5039 84.543C97.3242 84.1289 97.0508 83.8008 96.6836 83.5586C96.3242 83.3164 95.8633 83.1953 95.3008 83.1953ZM109.457 80.6523C110.668 80.6523 111.711 80.8867 112.586 81.3555C113.461 81.8164 114.137 82.4883 114.613 83.3711C115.09 84.2539 115.328 85.332 115.328 86.6055V88.3398H106.879C106.918 89.3477 107.219 90.1406 107.781 90.7188C108.352 91.2891 109.141 91.5742 110.148 91.5742C110.984 91.5742 111.75 91.4883 112.445 91.3164C113.141 91.1445 113.855 90.8867 114.59 90.543V93.3086C113.941 93.6289 113.262 93.8633 112.551 94.0117C111.848 94.1602 110.992 94.2344 109.984 94.2344C108.672 94.2344 107.508 93.9922 106.492 93.5078C105.484 93.0234 104.691 92.2852 104.113 91.293C103.543 90.3008 103.258 89.0508 103.258 87.543C103.258 86.0117 103.516 84.7383 104.031 83.7227C104.555 82.6992 105.281 81.9336 106.211 81.4258C107.141 80.9102 108.223 80.6523 109.457 80.6523ZM109.48 83.1953C108.785 83.1953 108.207 83.418 107.746 83.8633C107.293 84.3086 107.031 85.0078 106.961 85.9609H111.977C111.969 85.4297 111.871 84.957 111.684 84.543C111.504 84.1289 111.23 83.8008 110.863 83.5586C110.504 83.3164 110.043 83.1953 109.48 83.1953ZM121.809 80.8984V94H118.234V80.8984H121.809ZM120.027 75.7656C120.559 75.7656 121.016 75.8906 121.398 76.1406C121.781 76.3828 121.973 76.8398 121.973 77.5117C121.973 78.1758 121.781 78.6367 121.398 78.8945C121.016 79.1445 120.559 79.2695 120.027 79.2695C119.488 79.2695 119.027 79.1445 118.645 78.8945C118.27 78.6367 118.082 78.1758 118.082 77.5117C118.082 76.8398 118.27 76.3828 118.645 76.1406C119.027 75.8906 119.488 75.7656 120.027 75.7656ZM133.012 80.6523C134.41 80.6523 135.535 81.0352 136.387 81.8008C137.238 82.5586 137.664 83.7773 137.664 85.457V94H134.09V86.3477C134.09 85.4102 133.918 84.7031 133.574 84.2266C133.238 83.75 132.707 83.5117 131.98 83.5117C130.887 83.5117 130.141 83.8828 129.742 84.625C129.344 85.3672 129.145 86.4375 129.145 87.8359V94H125.57V80.8984H128.301L128.781 82.5742H128.98C129.262 82.1211 129.609 81.7539 130.023 81.4727C130.445 81.1914 130.91 80.9844 131.418 80.8516C131.934 80.7188 132.465 80.6523 133.012 80.6523ZM145.176 99.7656C143.348 99.7656 141.949 99.4453 140.98 98.8047C140.02 98.1719 139.539 97.2812 139.539 96.1328C139.539 95.3438 139.785 94.6836 140.277 94.1523C140.77 93.6211 141.492 93.2422 142.445 93.0156C142.078 92.8594 141.758 92.6055 141.484 92.2539C141.211 91.8945 141.074 91.5156 141.074 91.1172C141.074 90.6172 141.219 90.2031 141.508 89.875C141.797 89.5391 142.215 89.2109 142.762 88.8906C142.074 88.5938 141.527 88.1172 141.121 87.4609C140.723 86.8047 140.523 86.0312 140.523 85.1406C140.523 84.1875 140.73 83.3789 141.145 82.7148C141.566 82.043 142.176 81.5312 142.973 81.1797C143.777 80.8281 144.754 80.6523 145.902 80.6523C146.145 80.6523 146.426 80.668 146.746 80.6992C147.066 80.7305 147.359 80.7656 147.625 80.8047C147.898 80.8438 148.082 80.875 148.176 80.8984H152.746V82.7148L150.695 83.2422C150.883 83.5312 151.023 83.8398 151.117 84.168C151.211 84.4961 151.258 84.8438 151.258 85.2109C151.258 86.6172 150.766 87.7148 149.781 88.5039C148.805 89.2852 147.445 89.6758 145.703 89.6758C145.289 89.6523 144.898 89.6211 144.531 89.582C144.352 89.7227 144.215 89.8711 144.121 90.0273C144.027 90.1836 143.98 90.3477 143.98 90.5195C143.98 90.6914 144.051 90.8359 144.191 90.9531C144.34 91.0625 144.559 91.1484 144.848 91.2109C145.145 91.2656 145.512 91.293 145.949 91.293H148.176C149.613 91.293 150.707 91.6016 151.457 92.2188C152.215 92.8359 152.594 93.7422 152.594 94.9375C152.594 96.4688 151.953 97.6562 150.672 98.5C149.398 99.3438 147.566 99.7656 145.176 99.7656ZM145.328 97.4336C146.18 97.4336 146.91 97.3516 147.52 97.1875C148.137 97.0312 148.609 96.8047 148.938 96.5078C149.266 96.2188 149.43 95.8711 149.43 95.4648C149.43 95.1367 149.332 94.875 149.137 94.6797C148.949 94.4922 148.66 94.3594 148.27 94.2812C147.887 94.2031 147.395 94.1641 146.793 94.1641H144.941C144.504 94.1641 144.109 94.2344 143.758 94.375C143.414 94.5156 143.141 94.7109 142.938 94.9609C142.734 95.2188 142.633 95.5156 142.633 95.8516C142.633 96.3438 142.867 96.7305 143.336 97.0117C143.812 97.293 144.477 97.4336 145.328 97.4336ZM145.902 87.4961C146.574 87.4961 147.066 87.2891 147.379 86.875C147.691 86.4609 147.848 85.8984 147.848 85.1875C147.848 84.3984 147.684 83.8086 147.355 83.418C147.035 83.0195 146.551 82.8203 145.902 82.8203C145.246 82.8203 144.754 83.0195 144.426 83.418C144.098 83.8086 143.934 84.3984 143.934 85.1875C143.934 85.8984 144.094 86.4609 144.414 86.875C144.742 87.2891 145.238 87.4961 145.902 87.4961ZM159.273 80.8984H163.188L165.66 88.2695C165.738 88.5039 165.805 88.7422 165.859 88.9844C165.914 89.2266 165.961 89.4766 166 89.7344C166.039 89.9922 166.07 90.2617 166.094 90.543H166.164C166.211 90.1211 166.273 89.7266 166.352 89.3594C166.438 88.9922 166.543 88.6289 166.668 88.2695L169.094 80.8984H172.926L167.383 95.6758C167.047 96.582 166.609 97.3359 166.07 97.9375C165.531 98.5469 164.91 99.0039 164.207 99.3086C163.512 99.6133 162.746 99.7656 161.91 99.7656C161.504 99.7656 161.152 99.7422 160.855 99.6953C160.559 99.6562 160.305 99.6133 160.094 99.5664V96.7305C160.258 96.7695 160.465 96.8047 160.715 96.8359C160.965 96.8672 161.227 96.8828 161.5 96.8828C162 96.8828 162.43 96.7773 162.789 96.5664C163.148 96.3555 163.449 96.0703 163.691 95.7109C163.934 95.3594 164.125 94.9727 164.266 94.5508L164.477 93.9062L159.273 80.8984ZM186.719 87.4258C186.719 88.5195 186.57 89.4883 186.273 90.332C185.984 91.1758 185.559 91.8906 184.996 92.4766C184.441 93.0547 183.77 93.4922 182.98 93.7891C182.199 94.0859 181.316 94.2344 180.332 94.2344C179.41 94.2344 178.562 94.0859 177.789 93.7891C177.023 93.4922 176.355 93.0547 175.785 92.4766C175.223 91.8906 174.785 91.1758 174.473 90.332C174.168 89.4883 174.016 88.5195 174.016 87.4258C174.016 85.9727 174.273 84.7422 174.789 83.7344C175.305 82.7266 176.039 81.9609 176.992 81.4375C177.945 80.9141 179.082 80.6523 180.402 80.6523C181.629 80.6523 182.715 80.9141 183.66 81.4375C184.613 81.9609 185.359 82.7266 185.898 83.7344C186.445 84.7422 186.719 85.9727 186.719 87.4258ZM177.66 87.4258C177.66 88.2852 177.754 89.0078 177.941 89.5938C178.129 90.1797 178.422 90.6211 178.82 90.918C179.219 91.2148 179.738 91.3633 180.379 91.3633C181.012 91.3633 181.523 91.2148 181.914 90.918C182.312 90.6211 182.602 90.1797 182.781 89.5938C182.969 89.0078 183.062 88.2852 183.062 87.4258C183.062 86.5586 182.969 85.8398 182.781 85.2695C182.602 84.6914 182.312 84.2578 181.914 83.9688C181.516 83.6797 180.996 83.5352 180.355 83.5352C179.41 83.5352 178.723 83.8594 178.293 84.5078C177.871 85.1562 177.66 86.1289 177.66 87.4258ZM201.695 80.8984V94H198.953L198.473 92.3242H198.285C198.004 92.7695 197.652 93.1328 197.23 93.4141C196.809 93.6953 196.344 93.9023 195.836 94.0352C195.328 94.168 194.801 94.2344 194.254 94.2344C193.316 94.2344 192.5 94.0703 191.805 93.7422C191.109 93.4062 190.566 92.8867 190.176 92.1836C189.793 91.4805 189.602 90.5664 189.602 89.4414V80.8984H193.176V88.5508C193.176 89.4883 193.344 90.1953 193.68 90.6719C194.016 91.1484 194.551 91.3867 195.285 91.3867C196.012 91.3867 196.582 91.2227 196.996 90.8945C197.41 90.5586 197.699 90.0703 197.863 89.4297C198.035 88.7812 198.121 87.9922 198.121 87.0625V80.8984H201.695ZM223.586 87.4258C223.586 88.5195 223.438 89.4883 223.141 90.332C222.852 91.1758 222.426 91.8906 221.863 92.4766C221.309 93.0547 220.637 93.4922 219.848 93.7891C219.066 94.0859 218.184 94.2344 217.199 94.2344C216.277 94.2344 215.43 94.0859 214.656 93.7891C213.891 93.4922 213.223 93.0547 212.652 92.4766C212.09 91.8906 211.652 91.1758 211.34 90.332C211.035 89.4883 210.883 88.5195 210.883 87.4258C210.883 85.9727 211.141 84.7422 211.656 83.7344C212.172 82.7266 212.906 81.9609 213.859 81.4375C214.812 80.9141 215.949 80.6523 217.27 80.6523C218.496 80.6523 219.582 80.9141 220.527 81.4375C221.48 81.9609 222.227 82.7266 222.766 83.7344C223.312 84.7422 223.586 85.9727 223.586 87.4258ZM214.527 87.4258C214.527 88.2852 214.621 89.0078 214.809 89.5938C214.996 90.1797 215.289 90.6211 215.688 90.918C216.086 91.2148 216.605 91.3633 217.246 91.3633C217.879 91.3633 218.391 91.2148 218.781 90.918C219.18 90.6211 219.469 90.1797 219.648 89.5938C219.836 89.0078 219.93 88.2852 219.93 87.4258C219.93 86.5586 219.836 85.8398 219.648 85.2695C219.469 84.6914 219.18 84.2578 218.781 83.9688C218.383 83.6797 217.863 83.5352 217.223 83.5352C216.277 83.5352 215.59 83.8594 215.16 84.5078C214.738 85.1562 214.527 86.1289 214.527 87.4258ZM233.98 80.6523C235.379 80.6523 236.504 81.0352 237.355 81.8008C238.207 82.5586 238.633 83.7773 238.633 85.457V94H235.059V86.3477C235.059 85.4102 234.887 84.7031 234.543 84.2266C234.207 83.75 233.676 83.5117 232.949 83.5117C231.855 83.5117 231.109 83.8828 230.711 84.625C230.312 85.3672 230.113 86.4375 230.113 87.8359V94H226.539V80.8984H229.27L229.75 82.5742H229.949C230.23 82.1211 230.578 81.7539 230.992 81.4727C231.414 81.1914 231.879 80.9844 232.387 80.8516C232.902 80.7188 233.434 80.6523 233.98 80.6523ZM260.453 87.4258C260.453 88.5195 260.305 89.4883 260.008 90.332C259.719 91.1758 259.293 91.8906 258.73 92.4766C258.176 93.0547 257.504 93.4922 256.715 93.7891C255.934 94.0859 255.051 94.2344 254.066 94.2344C253.145 94.2344 252.297 94.0859 251.523 93.7891C250.758 93.4922 250.09 93.0547 249.52 92.4766C248.957 91.8906 248.52 91.1758 248.207 90.332C247.902 89.4883 247.75 88.5195 247.75 87.4258C247.75 85.9727 248.008 84.7422 248.523 83.7344C249.039 82.7266 249.773 81.9609 250.727 81.4375C251.68 80.9141 252.816 80.6523 254.137 80.6523C255.363 80.6523 256.449 80.9141 257.395 81.4375C258.348 81.9609 259.094 82.7266 259.633 83.7344C260.18 84.7422 260.453 85.9727 260.453 87.4258ZM251.395 87.4258C251.395 88.2852 251.488 89.0078 251.676 89.5938C251.863 90.1797 252.156 90.6211 252.555 90.918C252.953 91.2148 253.473 91.3633 254.113 91.3633C254.746 91.3633 255.258 91.2148 255.648 90.918C256.047 90.6211 256.336 90.1797 256.516 89.5938C256.703 89.0078 256.797 88.2852 256.797 87.4258C256.797 86.5586 256.703 85.8398 256.516 85.2695C256.336 84.6914 256.047 84.2578 255.648 83.9688C255.25 83.6797 254.73 83.5352 254.09 83.5352C253.145 83.5352 252.457 83.8594 252.027 84.5078C251.605 85.1562 251.395 86.1289 251.395 87.4258ZM275.43 80.8984V94H272.688L272.207 92.3242H272.02C271.738 92.7695 271.387 93.1328 270.965 93.4141C270.543 93.6953 270.078 93.9023 269.57 94.0352C269.062 94.168 268.535 94.2344 267.988 94.2344C267.051 94.2344 266.234 94.0703 265.539 93.7422C264.844 93.4062 264.301 92.8867 263.91 92.1836C263.527 91.4805 263.336 90.5664 263.336 89.4414V80.8984H266.91V88.5508C266.91 89.4883 267.078 90.1953 267.414 90.6719C267.75 91.1484 268.285 91.3867 269.02 91.3867C269.746 91.3867 270.316 91.2227 270.73 90.8945C271.145 90.5586 271.434 90.0703 271.598 89.4297C271.77 88.7812 271.855 87.9922 271.855 87.0625V80.8984H275.43ZM286.492 80.6523C286.672 80.6523 286.879 80.6641 287.113 80.6875C287.355 80.7031 287.551 80.7266 287.699 80.7578L287.43 84.1094C287.312 84.0703 287.145 84.043 286.926 84.0273C286.715 84.0039 286.531 83.9922 286.375 83.9922C285.914 83.9922 285.465 84.0508 285.027 84.168C284.598 84.2852 284.211 84.4766 283.867 84.7422C283.523 85 283.25 85.3438 283.047 85.7734C282.852 86.1953 282.754 86.7148 282.754 87.332V94H279.18V80.8984H281.887L282.414 83.1016H282.59C282.848 82.6562 283.168 82.25 283.551 81.8828C283.941 81.5078 284.383 81.2109 284.875 80.9922C285.375 80.7656 285.914 80.6523 286.492 80.6523ZM304.176 99.7656V94.2695C304.176 93.9414 304.188 93.6133 304.211 93.2852C304.242 92.9492 304.281 92.6211 304.328 92.3008H304.176C303.84 92.8398 303.375 93.2969 302.781 93.6719C302.195 94.0469 301.422 94.2344 300.461 94.2344C298.984 94.2344 297.789 93.6641 296.875 92.5234C295.969 91.375 295.516 89.6914 295.516 87.4727C295.516 85.9805 295.727 84.7305 296.148 83.7227C296.57 82.707 297.156 81.9414 297.906 81.4258C298.664 80.9102 299.539 80.6523 300.531 80.6523C301.492 80.6523 302.27 80.8398 302.863 81.2148C303.465 81.582 303.953 82.0352 304.328 82.5742H304.422L304.738 80.8984H307.762V99.7656H304.176ZM301.738 91.4336C302.395 91.4336 302.914 91.3047 303.297 91.0469C303.688 90.7891 303.969 90.4023 304.141 89.8867C304.312 89.3633 304.406 88.7109 304.422 87.9297V87.4961C304.422 86.2227 304.227 85.25 303.836 84.5781C303.445 83.8984 302.727 83.5586 301.68 83.5586C300.828 83.5586 300.195 83.8984 299.781 84.5781C299.367 85.2578 299.16 86.2383 299.16 87.5195C299.16 88.8242 299.371 89.8047 299.793 90.4609C300.215 91.1094 300.863 91.4336 301.738 91.4336ZM323.523 80.8984V94H320.781L320.301 92.3242H320.113C319.832 92.7695 319.48 93.1328 319.059 93.4141C318.637 93.6953 318.172 93.9023 317.664 94.0352C317.156 94.168 316.629 94.2344 316.082 94.2344C315.145 94.2344 314.328 94.0703 313.633 93.7422C312.938 93.4062 312.395 92.8867 312.004 92.1836C311.621 91.4805 311.43 90.5664 311.43 89.4414V80.8984H315.004V88.5508C315.004 89.4883 315.172 90.1953 315.508 90.6719C315.844 91.1484 316.379 91.3867 317.113 91.3867C317.84 91.3867 318.41 91.2227 318.824 90.8945C319.238 90.5586 319.527 90.0703 319.691 89.4297C319.863 88.7812 319.949 87.9922 319.949 87.0625V80.8984H323.523ZM330.848 80.8984V94H327.273V80.8984H330.848ZM329.066 75.7656C329.598 75.7656 330.055 75.8906 330.438 76.1406C330.82 76.3828 331.012 76.8398 331.012 77.5117C331.012 78.1758 330.82 78.6367 330.438 78.8945C330.055 79.1445 329.598 79.2695 329.066 79.2695C328.527 79.2695 328.066 79.1445 327.684 78.8945C327.309 78.6367 327.121 78.1758 327.121 77.5117C327.121 76.8398 327.309 76.3828 327.684 76.1406C328.066 75.8906 328.527 75.7656 329.066 75.7656ZM343.727 94H333.379V91.8906L339.449 83.6289H333.742V80.8984H343.516V83.2188L337.609 91.2695H343.727V94ZM89.8633 124.387C90.2539 124.387 90.6328 124.348 91 124.27C91.375 124.191 91.7461 124.094 92.1133 123.977V126.637C91.7305 126.809 91.2539 126.949 90.6836 127.059C90.1211 127.176 89.5039 127.234 88.832 127.234C88.0508 127.234 87.3477 127.109 86.7227 126.859C86.1055 126.602 85.6172 126.16 85.2578 125.535C84.9062 124.902 84.7305 124.023 84.7305 122.898V116.582H83.0195V115.07L84.9883 113.875L86.0195 111.109H88.3047V113.898H91.9727V116.582H88.3047V122.898C88.3047 123.398 88.4453 123.773 88.7266 124.023C89.0156 124.266 89.3945 124.387 89.8633 124.387ZM106.68 120.426C106.68 121.52 106.531 122.488 106.234 123.332C105.945 124.176 105.52 124.891 104.957 125.477C104.402 126.055 103.73 126.492 102.941 126.789C102.16 127.086 101.277 127.234 100.293 127.234C99.3711 127.234 98.5234 127.086 97.75 126.789C96.9844 126.492 96.3164 126.055 95.7461 125.477C95.1836 124.891 94.7461 124.176 94.4336 123.332C94.1289 122.488 93.9766 121.52 93.9766 120.426C93.9766 118.973 94.2344 117.742 94.75 116.734C95.2656 115.727 96 114.961 96.9531 114.438C97.9062 113.914 99.043 113.652 100.363 113.652C101.59 113.652 102.676 113.914 103.621 114.438C104.574 114.961 105.32 115.727 105.859 116.734C106.406 117.742 106.68 118.973 106.68 120.426ZM97.6211 120.426C97.6211 121.285 97.7148 122.008 97.9023 122.594C98.0898 123.18 98.3828 123.621 98.7812 123.918C99.1797 124.215 99.6992 124.363 100.34 124.363C100.973 124.363 101.484 124.215 101.875 123.918C102.273 123.621 102.562 123.18 102.742 122.594C102.93 122.008 103.023 121.285 103.023 120.426C103.023 119.559 102.93 118.84 102.742 118.27C102.562 117.691 102.273 117.258 101.875 116.969C101.477 116.68 100.957 116.535 100.316 116.535C99.3711 116.535 98.6836 116.859 98.2539 117.508C97.832 118.156 97.6211 119.129 97.6211 120.426ZM119.699 132.766C117.871 132.766 116.473 132.445 115.504 131.805C114.543 131.172 114.062 130.281 114.062 129.133C114.062 128.344 114.309 127.684 114.801 127.152C115.293 126.621 116.016 126.242 116.969 126.016C116.602 125.859 116.281 125.605 116.008 125.254C115.734 124.895 115.598 124.516 115.598 124.117C115.598 123.617 115.742 123.203 116.031 122.875C116.32 122.539 116.738 122.211 117.285 121.891C116.598 121.594 116.051 121.117 115.645 120.461C115.246 119.805 115.047 119.031 115.047 118.141C115.047 117.188 115.254 116.379 115.668 115.715C116.09 115.043 116.699 114.531 117.496 114.18C118.301 113.828 119.277 113.652 120.426 113.652C120.668 113.652 120.949 113.668 121.27 113.699C121.59 113.73 121.883 113.766 122.148 113.805C122.422 113.844 122.605 113.875 122.699 113.898H127.27V115.715L125.219 116.242C125.406 116.531 125.547 116.84 125.641 117.168C125.734 117.496 125.781 117.844 125.781 118.211C125.781 119.617 125.289 120.715 124.305 121.504C123.328 122.285 121.969 122.676 120.227 122.676C119.812 122.652 119.422 122.621 119.055 122.582C118.875 122.723 118.738 122.871 118.645 123.027C118.551 123.184 118.504 123.348 118.504 123.52C118.504 123.691 118.574 123.836 118.715 123.953C118.863 124.062 119.082 124.148 119.371 124.211C119.668 124.266 120.035 124.293 120.473 124.293H122.699C124.137 124.293 125.23 124.602 125.98 125.219C126.738 125.836 127.117 126.742 127.117 127.938C127.117 129.469 126.477 130.656 125.195 131.5C123.922 132.344 122.09 132.766 119.699 132.766ZM119.852 130.434C120.703 130.434 121.434 130.352 122.043 130.188C122.66 130.031 123.133 129.805 123.461 129.508C123.789 129.219 123.953 128.871 123.953 128.465C123.953 128.137 123.855 127.875 123.66 127.68C123.473 127.492 123.184 127.359 122.793 127.281C122.41 127.203 121.918 127.164 121.316 127.164H119.465C119.027 127.164 118.633 127.234 118.281 127.375C117.938 127.516 117.664 127.711 117.461 127.961C117.258 128.219 117.156 128.516 117.156 128.852C117.156 129.344 117.391 129.73 117.859 130.012C118.336 130.293 119 130.434 119.852 130.434ZM120.426 120.496C121.098 120.496 121.59 120.289 121.902 119.875C122.215 119.461 122.371 118.898 122.371 118.188C122.371 117.398 122.207 116.809 121.879 116.418C121.559 116.02 121.074 115.82 120.426 115.82C119.77 115.82 119.277 116.02 118.949 116.418C118.621 116.809 118.457 117.398 118.457 118.188C118.457 118.898 118.617 119.461 118.938 119.875C119.266 120.289 119.762 120.496 120.426 120.496ZM134.84 113.652C136.051 113.652 137.094 113.887 137.969 114.355C138.844 114.816 139.52 115.488 139.996 116.371C140.473 117.254 140.711 118.332 140.711 119.605V121.34H132.262C132.301 122.348 132.602 123.141 133.164 123.719C133.734 124.289 134.523 124.574 135.531 124.574C136.367 124.574 137.133 124.488 137.828 124.316C138.523 124.145 139.238 123.887 139.973 123.543V126.309C139.324 126.629 138.645 126.863 137.934 127.012C137.23 127.16 136.375 127.234 135.367 127.234C134.055 127.234 132.891 126.992 131.875 126.508C130.867 126.023 130.074 125.285 129.496 124.293C128.926 123.301 128.641 122.051 128.641 120.543C128.641 119.012 128.898 117.738 129.414 116.723C129.938 115.699 130.664 114.934 131.594 114.426C132.523 113.91 133.605 113.652 134.84 113.652ZM134.863 116.195C134.168 116.195 133.59 116.418 133.129 116.863C132.676 117.309 132.414 118.008 132.344 118.961H137.359C137.352 118.43 137.254 117.957 137.066 117.543C136.887 117.129 136.613 116.801 136.246 116.559C135.887 116.316 135.426 116.195 134.863 116.195ZM149.137 124.387C149.527 124.387 149.906 124.348 150.273 124.27C150.648 124.191 151.02 124.094 151.387 123.977V126.637C151.004 126.809 150.527 126.949 149.957 127.059C149.395 127.176 148.777 127.234 148.105 127.234C147.324 127.234 146.621 127.109 145.996 126.859C145.379 126.602 144.891 126.16 144.531 125.535C144.18 124.902 144.004 124.023 144.004 122.898V116.582H142.293V115.07L144.262 113.875L145.293 111.109H147.578V113.898H151.246V116.582H147.578V122.898C147.578 123.398 147.719 123.773 148 124.023C148.289 124.266 148.668 124.387 149.137 124.387ZM165.801 124.387C166.191 124.387 166.57 124.348 166.938 124.27C167.312 124.191 167.684 124.094 168.051 123.977V126.637C167.668 126.809 167.191 126.949 166.621 127.059C166.059 127.176 165.441 127.234 164.77 127.234C163.988 127.234 163.285 127.109 162.66 126.859C162.043 126.602 161.555 126.16 161.195 125.535C160.844 124.902 160.668 124.023 160.668 122.898V116.582H158.957V115.07L160.926 113.875L161.957 111.109H164.242V113.898H167.91V116.582H164.242V122.898C164.242 123.398 164.383 123.773 164.664 124.023C164.953 124.266 165.332 124.387 165.801 124.387ZM182.617 120.426C182.617 121.52 182.469 122.488 182.172 123.332C181.883 124.176 181.457 124.891 180.895 125.477C180.34 126.055 179.668 126.492 178.879 126.789C178.098 127.086 177.215 127.234 176.23 127.234C175.309 127.234 174.461 127.086 173.688 126.789C172.922 126.492 172.254 126.055 171.684 125.477C171.121 124.891 170.684 124.176 170.371 123.332C170.066 122.488 169.914 121.52 169.914 120.426C169.914 118.973 170.172 117.742 170.688 116.734C171.203 115.727 171.938 114.961 172.891 114.438C173.844 113.914 174.98 113.652 176.301 113.652C177.527 113.652 178.613 113.914 179.559 114.438C180.512 114.961 181.258 115.727 181.797 116.734C182.344 117.742 182.617 118.973 182.617 120.426ZM173.559 120.426C173.559 121.285 173.652 122.008 173.84 122.594C174.027 123.18 174.32 123.621 174.719 123.918C175.117 124.215 175.637 124.363 176.277 124.363C176.91 124.363 177.422 124.215 177.812 123.918C178.211 123.621 178.5 123.18 178.68 122.594C178.867 122.008 178.961 121.285 178.961 120.426C178.961 119.559 178.867 118.84 178.68 118.27C178.5 117.691 178.211 117.258 177.812 116.969C177.414 116.68 176.895 116.535 176.254 116.535C175.309 116.535 174.621 116.859 174.191 117.508C173.77 118.156 173.559 119.129 173.559 120.426ZM195.379 108.766V116.922C195.379 117.414 195.359 117.906 195.32 118.398C195.281 118.891 195.238 119.383 195.191 119.875H195.238C195.48 119.531 195.727 119.191 195.977 118.855C196.234 118.52 196.508 118.195 196.797 117.883L200.465 113.898H204.496L199.293 119.582L204.812 127H200.688L196.914 121.691L195.379 122.922V127H191.805V108.766H195.379ZM214.129 113.652C215.527 113.652 216.652 114.035 217.504 114.801C218.355 115.559 218.781 116.777 218.781 118.457V127H215.207V119.348C215.207 118.41 215.035 117.703 214.691 117.227C214.355 116.75 213.824 116.512 213.098 116.512C212.004 116.512 211.258 116.883 210.859 117.625C210.461 118.367 210.262 119.438 210.262 120.836V127H206.688V113.898H209.418L209.898 115.574H210.098C210.379 115.121 210.727 114.754 211.141 114.473C211.562 114.191 212.027 113.984 212.535 113.852C213.051 113.719 213.582 113.652 214.129 113.652ZM234.367 120.426C234.367 121.52 234.219 122.488 233.922 123.332C233.633 124.176 233.207 124.891 232.645 125.477C232.09 126.055 231.418 126.492 230.629 126.789C229.848 127.086 228.965 127.234 227.98 127.234C227.059 127.234 226.211 127.086 225.438 126.789C224.672 126.492 224.004 126.055 223.434 125.477C222.871 124.891 222.434 124.176 222.121 123.332C221.816 122.488 221.664 121.52 221.664 120.426C221.664 118.973 221.922 117.742 222.438 116.734C222.953 115.727 223.688 114.961 224.641 114.438C225.594 113.914 226.73 113.652 228.051 113.652C229.277 113.652 230.363 113.914 231.309 114.438C232.262 114.961 233.008 115.727 233.547 116.734C234.094 117.742 234.367 118.973 234.367 120.426ZM225.309 120.426C225.309 121.285 225.402 122.008 225.59 122.594C225.777 123.18 226.07 123.621 226.469 123.918C226.867 124.215 227.387 124.363 228.027 124.363C228.66 124.363 229.172 124.215 229.562 123.918C229.961 123.621 230.25 123.18 230.43 122.594C230.617 122.008 230.711 121.285 230.711 120.426C230.711 119.559 230.617 118.84 230.43 118.27C230.25 117.691 229.961 117.258 229.562 116.969C229.164 116.68 228.645 116.535 228.004 116.535C227.059 116.535 226.371 116.859 225.941 117.508C225.52 118.156 225.309 119.129 225.309 120.426ZM248.09 127L247.082 122.418C247.027 122.145 246.938 121.742 246.812 121.211C246.688 120.672 246.551 120.098 246.402 119.488C246.262 118.871 246.129 118.301 246.004 117.777C245.887 117.254 245.801 116.871 245.746 116.629H245.641C245.586 116.871 245.5 117.254 245.383 117.777C245.266 118.301 245.133 118.871 244.984 119.488C244.844 120.105 244.711 120.688 244.586 121.234C244.461 121.773 244.367 122.184 244.305 122.465L243.25 127H239.406L235.68 113.898H239.242L240.754 119.699C240.855 120.105 240.953 120.59 241.047 121.152C241.141 121.707 241.223 122.246 241.293 122.77C241.371 123.285 241.43 123.695 241.469 124H241.562C241.578 123.773 241.609 123.473 241.656 123.098C241.711 122.723 241.77 122.336 241.832 121.938C241.902 121.531 241.965 121.168 242.02 120.848C242.082 120.52 242.129 120.297 242.16 120.18L243.777 113.898H247.715L249.25 120.18C249.305 120.406 249.375 120.766 249.461 121.258C249.555 121.75 249.637 122.258 249.707 122.781C249.777 123.297 249.816 123.703 249.824 124H249.918C249.949 123.734 250.004 123.34 250.082 122.816C250.16 122.293 250.25 121.746 250.352 121.176C250.461 120.598 250.57 120.105 250.68 119.699L252.25 113.898H255.754L251.98 127H248.09ZM262.234 113.898H266.148L268.621 121.27C268.699 121.504 268.766 121.742 268.82 121.984C268.875 122.227 268.922 122.477 268.961 122.734C269 122.992 269.031 123.262 269.055 123.543H269.125C269.172 123.121 269.234 122.727 269.312 122.359C269.398 121.992 269.504 121.629 269.629 121.27L272.055 113.898H275.887L270.344 128.676C270.008 129.582 269.57 130.336 269.031 130.938C268.492 131.547 267.871 132.004 267.168 132.309C266.473 132.613 265.707 132.766 264.871 132.766C264.465 132.766 264.113 132.742 263.816 132.695C263.52 132.656 263.266 132.613 263.055 132.566V129.73C263.219 129.77 263.426 129.805 263.676 129.836C263.926 129.867 264.188 129.883 264.461 129.883C264.961 129.883 265.391 129.777 265.75 129.566C266.109 129.355 266.41 129.07 266.652 128.711C266.895 128.359 267.086 127.973 267.227 127.551L267.438 126.906L262.234 113.898ZM289.68 120.426C289.68 121.52 289.531 122.488 289.234 123.332C288.945 124.176 288.52 124.891 287.957 125.477C287.402 126.055 286.73 126.492 285.941 126.789C285.16 127.086 284.277 127.234 283.293 127.234C282.371 127.234 281.523 127.086 280.75 126.789C279.984 126.492 279.316 126.055 278.746 125.477C278.184 124.891 277.746 124.176 277.434 123.332C277.129 122.488 276.977 121.52 276.977 120.426C276.977 118.973 277.234 117.742 277.75 116.734C278.266 115.727 279 114.961 279.953 114.438C280.906 113.914 282.043 113.652 283.363 113.652C284.59 113.652 285.676 113.914 286.621 114.438C287.574 114.961 288.32 115.727 288.859 116.734C289.406 117.742 289.68 118.973 289.68 120.426ZM280.621 120.426C280.621 121.285 280.715 122.008 280.902 122.594C281.09 123.18 281.383 123.621 281.781 123.918C282.18 124.215 282.699 124.363 283.34 124.363C283.973 124.363 284.484 124.215 284.875 123.918C285.273 123.621 285.562 123.18 285.742 122.594C285.93 122.008 286.023 121.285 286.023 120.426C286.023 119.559 285.93 118.84 285.742 118.27C285.562 117.691 285.273 117.258 284.875 116.969C284.477 116.68 283.957 116.535 283.316 116.535C282.371 116.535 281.684 116.859 281.254 117.508C280.832 118.156 280.621 119.129 280.621 120.426ZM304.656 113.898V127H301.914L301.434 125.324H301.246C300.965 125.77 300.613 126.133 300.191 126.414C299.77 126.695 299.305 126.902 298.797 127.035C298.289 127.168 297.762 127.234 297.215 127.234C296.277 127.234 295.461 127.07 294.766 126.742C294.07 126.406 293.527 125.887 293.137 125.184C292.754 124.48 292.562 123.566 292.562 122.441V113.898H296.137V121.551C296.137 122.488 296.305 123.195 296.641 123.672C296.977 124.148 297.512 124.387 298.246 124.387C298.973 124.387 299.543 124.223 299.957 123.895C300.371 123.559 300.66 123.07 300.824 122.43C300.996 121.781 301.082 120.992 301.082 120.062V113.898H304.656ZM158.863 141.766V146.008C158.863 146.5 158.848 146.988 158.816 147.473C158.793 147.957 158.762 148.332 158.723 148.598H158.863C159.207 148.059 159.676 147.602 160.27 147.227C160.863 146.844 161.633 146.652 162.578 146.652C164.047 146.652 165.238 147.227 166.152 148.375C167.066 149.523 167.523 151.207 167.523 153.426C167.523 154.918 167.312 156.172 166.891 157.188C166.469 158.195 165.879 158.957 165.121 159.473C164.363 159.98 163.484 160.234 162.484 160.234C161.523 160.234 160.766 160.062 160.211 159.719C159.656 159.375 159.207 158.988 158.863 158.559H158.617L158.02 160H155.289V141.766H158.863ZM161.43 149.512C160.805 149.512 160.309 149.641 159.941 149.898C159.574 150.156 159.305 150.543 159.133 151.059C158.969 151.574 158.879 152.227 158.863 153.016V153.402C158.863 154.676 159.051 155.652 159.426 156.332C159.801 157.004 160.484 157.34 161.477 157.34C162.211 157.34 162.793 157 163.223 156.32C163.66 155.641 163.879 154.66 163.879 153.379C163.879 152.098 163.66 151.133 163.223 150.484C162.785 149.836 162.188 149.512 161.43 149.512ZM175.879 146.652C177.09 146.652 178.133 146.887 179.008 147.355C179.883 147.816 180.559 148.488 181.035 149.371C181.512 150.254 181.75 151.332 181.75 152.605V154.34H173.301C173.34 155.348 173.641 156.141 174.203 156.719C174.773 157.289 175.562 157.574 176.57 157.574C177.406 157.574 178.172 157.488 178.867 157.316C179.562 157.145 180.277 156.887 181.012 156.543V159.309C180.363 159.629 179.684 159.863 178.973 160.012C178.27 160.16 177.414 160.234 176.406 160.234C175.094 160.234 173.93 159.992 172.914 159.508C171.906 159.023 171.113 158.285 170.535 157.293C169.965 156.301 169.68 155.051 169.68 153.543C169.68 152.012 169.938 150.738 170.453 149.723C170.977 148.699 171.703 147.934 172.633 147.426C173.562 146.91 174.645 146.652 175.879 146.652ZM175.902 149.195C175.207 149.195 174.629 149.418 174.168 149.863C173.715 150.309 173.453 151.008 173.383 151.961H178.398C178.391 151.43 178.293 150.957 178.105 150.543C177.926 150.129 177.652 149.801 177.285 149.559C176.926 149.316 176.465 149.195 175.902 149.195ZM190.176 157.387C190.566 157.387 190.945 157.348 191.312 157.27C191.688 157.191 192.059 157.094 192.426 156.977V159.637C192.043 159.809 191.566 159.949 190.996 160.059C190.434 160.176 189.816 160.234 189.145 160.234C188.363 160.234 187.66 160.109 187.035 159.859C186.418 159.602 185.93 159.16 185.57 158.535C185.219 157.902 185.043 157.023 185.043 155.898V149.582H183.332V148.07L185.301 146.875L186.332 144.109H188.617V146.898H192.285V149.582H188.617V155.898C188.617 156.398 188.758 156.773 189.039 157.023C189.328 157.266 189.707 157.387 190.176 157.387ZM200.605 157.387C200.996 157.387 201.375 157.348 201.742 157.27C202.117 157.191 202.488 157.094 202.855 156.977V159.637C202.473 159.809 201.996 159.949 201.426 160.059C200.863 160.176 200.246 160.234 199.574 160.234C198.793 160.234 198.09 160.109 197.465 159.859C196.848 159.602 196.359 159.16 196 158.535C195.648 157.902 195.473 157.023 195.473 155.898V149.582H193.762V148.07L195.73 146.875L196.762 144.109H199.047V146.898H202.715V149.582H199.047V155.898C199.047 156.398 199.188 156.773 199.469 157.023C199.758 157.266 200.137 157.387 200.605 157.387ZM210.918 146.652C212.129 146.652 213.172 146.887 214.047 147.355C214.922 147.816 215.598 148.488 216.074 149.371C216.551 150.254 216.789 151.332 216.789 152.605V154.34H208.34C208.379 155.348 208.68 156.141 209.242 156.719C209.812 157.289 210.602 157.574 211.609 157.574C212.445 157.574 213.211 157.488 213.906 157.316C214.602 157.145 215.316 156.887 216.051 156.543V159.309C215.402 159.629 214.723 159.863 214.012 160.012C213.309 160.16 212.453 160.234 211.445 160.234C210.133 160.234 208.969 159.992 207.953 159.508C206.945 159.023 206.152 158.285 205.574 157.293C205.004 156.301 204.719 155.051 204.719 153.543C204.719 152.012 204.977 150.738 205.492 149.723C206.016 148.699 206.742 147.934 207.672 147.426C208.602 146.91 209.684 146.652 210.918 146.652ZM210.941 149.195C210.246 149.195 209.668 149.418 209.207 149.863C208.754 150.309 208.492 151.008 208.422 151.961H213.438C213.43 151.43 213.332 150.957 213.145 150.543C212.965 150.129 212.691 149.801 212.324 149.559C211.965 149.316 211.504 149.195 210.941 149.195ZM227.008 146.652C227.188 146.652 227.395 146.664 227.629 146.688C227.871 146.703 228.066 146.727 228.215 146.758L227.945 150.109C227.828 150.07 227.66 150.043 227.441 150.027C227.23 150.004 227.047 149.992 226.891 149.992C226.43 149.992 225.98 150.051 225.543 150.168C225.113 150.285 224.727 150.477 224.383 150.742C224.039 151 223.766 151.344 223.562 151.773C223.367 152.195 223.27 152.715 223.27 153.332V160H219.695V146.898H222.402L222.93 149.102H223.105C223.363 148.656 223.684 148.25 224.066 147.883C224.457 147.508 224.898 147.211 225.391 146.992C225.891 146.766 226.43 146.652 227.008 146.652ZM233.594 154.316H230.734L230.137 142.867H234.191L233.594 154.316ZM230.09 158.324C230.09 157.59 230.289 157.074 230.688 156.777C231.094 156.48 231.582 156.332 232.152 156.332C232.707 156.332 233.184 156.48 233.582 156.777C233.988 157.074 234.191 157.59 234.191 158.324C234.191 159.027 233.988 159.535 233.582 159.848C233.184 160.16 232.707 160.316 232.152 160.316C231.582 160.316 231.094 160.16 230.688 159.848C230.289 159.535 230.09 159.027 230.09 158.324Z" fill="black"/>
</svg>
