<svg width="54" height="54" viewBox="0 0 54 54" fill="none" xmlns="http://www.w3.org/2000/svg">
<g clip-path="url(#clip0_71_18)">
<path fill-rule="evenodd" clip-rule="evenodd" d="M26.7598 53.4375C41.5161 53.4375 53.4785 41.4751 53.4785 26.7188C53.4785 11.9624 41.5161 0 26.7598 0C12.0034 0 0.0410156 11.9624 0.0410156 26.7188C0.0410156 41.4751 12.0034 53.4375 26.7598 53.4375ZM28.6492 12.2996C27.1086 12.3425 25.4829 12.7134 24.3346 13.8044C23.3863 14.6816 22.9085 15.9584 22.8011 17.2346C22.7684 18.1475 22.7731 19.0627 22.7778 19.9776C22.7812 20.6636 22.7848 21.3496 22.7725 22.0341C22.3507 22.0372 21.9277 22.0363 21.5045 22.0354C20.94 22.0343 20.3753 22.0331 19.8129 22.0413C19.8129 22.5876 19.8137 23.1346 19.8145 23.6821C19.8161 24.7788 19.8176 25.8774 19.8129 26.9763C20.3753 26.9845 20.94 26.9833 21.5045 26.9821C21.9277 26.9813 22.3507 26.9804 22.7725 26.9835C22.782 29.1611 22.7803 31.3386 22.7785 33.5162C22.7763 36.2381 22.7741 38.9599 22.794 41.6817C23.9513 41.6735 25.1062 41.6747 26.2615 41.6759C27.1281 41.6768 27.9948 41.6776 28.863 41.6745C28.8702 39.2247 28.8684 36.7769 28.8666 34.329C28.8648 31.8811 28.863 29.4332 28.8702 26.9835C29.4539 26.9804 30.0377 26.9813 30.6215 26.9821C31.3999 26.9833 32.1782 26.9845 32.9566 26.9763C33.1991 25.3359 33.4057 23.6812 33.5198 22.0198C32.7497 22.0163 31.9795 22.0163 31.2093 22.0163C30.4391 22.0163 29.6689 22.0162 28.8988 22.0127C28.8988 21.7255 28.8983 21.4384 28.8979 21.1514C28.8966 20.2903 28.8952 19.4293 28.906 18.5681C29.0272 17.9047 29.7116 17.3983 30.375 17.4413H33.527C33.5341 15.7226 33.5341 14.0111 33.527 12.2924C33.1205 12.2924 32.7141 12.292 32.3077 12.2915C31.0883 12.2902 29.8688 12.2889 28.6492 12.2996Z" fill="black"/>
</g>
<defs>
<clipPath id="clip0_71_18">
<rect width="53.4375" height="53.4375" fill="white" transform="translate(0.0410156)"/>
</clipPath>
</defs>
</svg>
