<svg width="54" height="54" viewBox="0 0 54 54" fill="none" xmlns="http://www.w3.org/2000/svg">
<g clip-path="url(#clip0_71_20)">
<path fill-rule="evenodd" clip-rule="evenodd" d="M26.7598 53.4375C41.5161 53.4375 53.4785 41.4751 53.4785 26.7188C53.4785 11.9624 41.5161 0 26.7598 0C12.0034 0 0.0410156 11.9624 0.0410156 26.7188C0.0410156 41.4751 12.0034 53.4375 26.7598 53.4375ZM13.4004 21.05C13.4004 16.8092 16.8506 13.3594 21.091 13.3594H32.4285C36.6693 13.3594 40.1191 16.8096 40.1191 21.05V32.4915C40.1191 36.7319 36.6693 40.1821 32.4285 40.1821H21.091C16.8502 40.1821 13.4004 36.7319 13.4004 32.4915V21.05ZM32.4285 37.6369C35.2656 37.6369 37.574 35.3287 37.574 32.4915V21.05C37.574 18.2129 35.2656 15.9045 32.4285 15.9045H21.091C18.2539 15.9045 15.9456 18.2129 15.9456 21.05V32.4915C15.9456 35.3287 18.2539 37.6369 21.091 37.6369H32.4285ZM19.8066 26.7216C19.8066 22.9165 22.9357 19.8211 26.781 19.8211C30.6263 19.8211 33.7553 22.9165 33.7553 26.7216C33.7553 30.5263 30.6263 33.6216 26.781 33.6216C22.9352 33.6216 19.8066 30.5263 19.8066 26.7216ZM22.347 26.7216C22.347 29.1252 24.3359 31.0813 26.781 31.0813C29.2261 31.0813 31.215 29.1256 31.215 26.7216C31.215 24.3176 29.2256 22.3619 26.781 22.3619C24.3359 22.3619 22.347 24.3176 22.347 26.7216ZM33.8802 21.1802C34.7865 21.1802 35.5212 20.4455 35.5212 19.5392C35.5212 18.633 34.7865 17.8983 33.8802 17.8983C32.9739 17.8983 32.2392 18.633 32.2392 19.5392C32.2392 20.4455 32.9739 21.1802 33.8802 21.1802Z" fill="black"/>
</g>
<defs>
<clipPath id="clip0_71_20">
<rect width="53.4375" height="53.4375" fill="white" transform="translate(0.0410156)"/>
</clipPath>
</defs>
</svg>
